<svg width="16" height="16" viewBox="0 0 16 16" fill="none" xmlns="http://www.w3.org/2000/svg">
    <path d="M7.4001 8.6001V10.6001C7.4001 10.7701 7.45726 10.9126 7.57158 11.0276C7.68591 11.1426 7.82758 11.2001 7.99658 11.2001C8.16559 11.2001 8.30843 11.1426 8.4251 11.0276C8.54176 10.9126 8.6001 10.7701 8.6001 10.6001V8.6001H10.6001C10.7701 8.6001 10.9126 8.54294 11.0276 8.42861C11.1426 8.31428 11.2001 8.17261 11.2001 8.00361C11.2001 7.8346 11.1426 7.69176 11.0276 7.5751C10.9126 7.45843 10.7701 7.4001 10.6001 7.4001H8.6001V5.4001C8.6001 5.2301 8.54294 5.0876 8.42861 4.9726C8.31428 4.8576 8.17261 4.8001 8.00361 4.8001C7.8346 4.8001 7.69176 4.8576 7.5751 4.9726C7.45843 5.0876 7.4001 5.2301 7.4001 5.4001V7.4001H5.4001C5.2301 7.4001 5.0876 7.45726 4.9726 7.57158C4.8576 7.68591 4.8001 7.82758 4.8001 7.99658C4.8001 8.16559 4.8576 8.30843 4.9726 8.4251C5.0876 8.54176 5.2301 8.6001 5.4001 8.6001H7.4001ZM8.0047 14.4001C7.12385 14.4001 6.29454 14.2334 5.51676 13.9001C4.73899 13.5668 4.05843 13.1084 3.4751 12.5251C2.89176 11.9418 2.43343 11.2614 2.1001 10.4841C1.76676 9.70681 1.6001 8.87625 1.6001 7.99246C1.6001 7.10866 1.76676 6.28065 2.1001 5.50843C2.43343 4.73621 2.89176 4.05843 3.4751 3.4751C4.05843 2.89176 4.73875 2.43343 5.51606 2.1001C6.29339 1.76676 7.12394 1.6001 8.00773 1.6001C8.89153 1.6001 9.71954 1.76676 10.4918 2.1001C11.264 2.43343 11.9418 2.89176 12.5251 3.4751C13.1084 4.05843 13.5668 4.73745 13.9001 5.51216C14.2334 6.28689 14.4001 7.11466 14.4001 7.9955C14.4001 8.87634 14.2334 9.70565 13.9001 10.4834C13.5668 11.2612 13.1084 11.9418 12.5251 12.5251C11.9418 13.1084 11.2627 13.5668 10.488 13.9001C9.71331 14.2334 8.88553 14.4001 8.0047 14.4001ZM8.0001 13.2001C9.44454 13.2001 10.6723 12.6945 11.6834 11.6834C12.6945 10.6723 13.2001 9.44454 13.2001 8.0001C13.2001 6.55565 12.6945 5.32788 11.6834 4.31676C10.6723 3.30565 9.44454 2.8001 8.0001 2.8001C6.55565 2.8001 5.32788 3.30565 4.31676 4.31676C3.30565 5.32788 2.8001 6.55565 2.8001 8.0001C2.8001 9.44454 3.30565 10.6723 4.31676 11.6834C5.32788 12.6945 6.55565 13.2001 8.0001 13.2001Z" fill="#0E1E6D"/>
</svg>