<svg width="28" height="28" viewBox="0 0 28 28" fill="none" xmlns="http://www.w3.org/2000/svg">
    <path d="M8.0096 25.0835C7.25427 25.0835 6.6055 24.83 6.06331 24.3229C5.5211 23.8159 5.25 23.1884 5.25 22.4406V6.51337C5.25 5.8418 5.46726 5.24613 5.90179 4.72636C6.33629 4.20661 6.88933 3.87643 7.5609 3.73583L15.9182 2.03746C16.5704 1.89685 17.1541 2.03558 17.6693 2.45363C18.1846 2.87167 18.4423 3.41648 18.4423 4.08808V17.6528C18.4423 18.1569 18.2841 18.6033 17.9677 18.9922C17.6514 19.3811 17.2509 19.6241 16.7663 19.7214L7.7471 21.6037C7.54218 21.6501 7.36643 21.7499 7.21986 21.9032C7.07327 22.0566 6.99997 22.2357 6.99997 22.4406C6.99997 22.6994 7.10056 22.9129 7.30173 23.0811C7.50292 23.2494 7.73888 23.3336 8.0096 23.3336H20.641C20.7457 23.3336 20.8317 23.2999 20.899 23.2326C20.9663 23.1653 21 23.0793 21 22.9745V6.12525C21 5.87696 21.0837 5.66906 21.2512 5.50155C21.4188 5.33402 21.6267 5.25025 21.8749 5.25025C22.1232 5.25025 22.3311 5.33402 22.4986 5.50155C22.6662 5.66906 22.7499 5.87696 22.7499 6.12525V22.9745C22.7499 23.5564 22.5439 24.0533 22.1318 24.4654C21.7197 24.8775 21.2228 25.0835 20.641 25.0835H8.0096ZM9.44323 19.4903C9.64814 19.4469 9.81565 19.3464 9.94577 19.1886C10.0759 19.0308 10.141 18.8494 10.141 18.6445V6.07809C10.141 5.7984 10.0355 5.5718 9.82465 5.3983C9.61375 5.2248 9.36845 5.16946 9.08874 5.23228C8.88384 5.27565 8.71632 5.37623 8.5862 5.53404C8.45608 5.69183 8.39102 5.87318 8.39102 6.07809V18.6445C8.39102 18.9242 8.49646 19.1508 8.70736 19.3243C8.91825 19.4978 9.16354 19.5531 9.44323 19.4903Z" fill="#0E1E6D"/>
</svg>