<svg width="24" height="24" viewBox="0 0 24 24" fill="none" xmlns="http://www.w3.org/2000/svg">
    <path d="M8.90401 6.03855H10.8271V4.11548H8.90401V6.03855ZM12.7501 6.03855V4.11548H14.6732V6.03855H12.7501ZM8.90401 13.7308V11.8078H10.8271V13.7308H8.90401ZM16.5963 9.88468V7.9616H18.5194V9.88468H16.5963ZM16.5963 13.7308V11.8078H18.5194V13.7308H16.5963ZM12.7501 13.7308V11.8078H14.6732V13.7308H12.7501ZM16.5963 6.03855V4.11548H18.5194V6.03855H16.5963ZM10.8271 7.9616V6.03855H12.7501V7.9616H10.8271ZM6.23061 19.7308C6.01802 19.7308 5.83993 19.659 5.69633 19.5152C5.55275 19.3715 5.48096 19.1933 5.48096 18.9809V4.86545C5.48096 4.65295 5.55287 4.47483 5.69668 4.33108C5.8405 4.18734 6.0187 4.11548 6.23128 4.11548C6.44387 4.11548 6.62196 4.18734 6.76556 4.33108C6.90914 4.47483 6.98093 4.65295 6.98093 4.86545V6.03855H8.90401V7.9616H6.98093V9.88468H8.90401V11.8078H6.98093V18.9809C6.98093 19.1933 6.90902 19.3715 6.76521 19.5152C6.62139 19.659 6.44319 19.7308 6.23061 19.7308ZM14.6732 11.8078V9.88468H16.5963V11.8078H14.6732ZM10.8271 11.8078V9.88468H12.7501V11.8078H10.8271ZM8.90401 9.88468V7.9616H10.8271V9.88468H8.90401ZM12.7501 9.88468V7.9616H14.6732V9.88468H12.7501ZM14.6732 7.9616V6.03855H16.5963V7.9616H14.6732Z" fill="#DA2323"/>
</svg>