<svg width="28" height="28" viewBox="0 0 28 28" fill="none" xmlns="http://www.w3.org/2000/svg">
    <path d="M9.40157 19.5642C9.69421 19.5642 9.93924 19.4653 10.1367 19.2673C10.3341 19.0693 10.4328 18.824 10.4328 18.5314C10.4328 18.2387 10.3338 17.9937 10.1359 17.7963C9.93793 17.5989 9.69264 17.5001 9.4 17.5001C9.10736 17.5001 8.86232 17.5991 8.66488 17.7971C8.46746 17.995 8.36875 18.2403 8.36875 18.533C8.36875 18.8256 8.46772 19.0706 8.66567 19.2681C8.86363 19.4655 9.10893 19.5642 9.40157 19.5642ZM9.40157 15.0322C9.69421 15.0322 9.93924 14.9332 10.1367 14.7353C10.3341 14.5373 10.4328 14.292 10.4328 13.9993C10.4328 13.7067 10.3338 13.4617 10.1359 13.2642C9.93793 13.0668 9.69264 12.9681 9.4 12.9681C9.10736 12.9681 8.86232 13.0671 8.66488 13.265C8.46746 13.463 8.36875 13.7083 8.36875 14.0009C8.36875 14.2936 8.46772 14.5386 8.66567 14.736C8.86363 14.9335 9.10893 15.0322 9.40157 15.0322ZM9.40157 10.5001C9.69421 10.5001 9.93924 10.4012 10.1367 10.2032C10.3341 10.0052 10.4328 9.75995 10.4328 9.46731C10.4328 9.17467 10.3338 8.92964 10.1359 8.7322C9.93793 8.53476 9.69264 8.43604 9.4 8.43604C9.10736 8.43604 8.86232 8.53502 8.66488 8.73298C8.46746 8.93095 8.36875 9.17625 8.36875 9.46889C8.36875 9.76153 8.46772 10.0066 8.66567 10.204C8.86363 10.4014 9.10893 10.5001 9.40157 10.5001ZM13.8206 19.4072H18.7117C18.9596 19.4072 19.1674 19.3233 19.3351 19.1555C19.5028 18.9877 19.5867 18.7798 19.5867 18.5318C19.5867 18.2838 19.5028 18.076 19.3351 17.9085C19.1674 17.741 18.9596 17.6572 18.7117 17.6572H13.8206C13.5727 17.6572 13.3649 17.7411 13.1972 17.9089C13.0295 18.0766 12.9456 18.2845 12.9456 18.5326C12.9456 18.7806 13.0295 18.9884 13.1972 19.1559C13.3649 19.3234 13.5727 19.4072 13.8206 19.4072ZM13.8206 14.8751H18.7117C18.9596 14.8751 19.1674 14.7912 19.3351 14.6235C19.5028 14.4557 19.5867 14.2478 19.5867 13.9998C19.5867 13.7517 19.5028 13.5439 19.3351 13.3764C19.1674 13.2089 18.9596 13.1252 18.7117 13.1252H13.8206C13.5727 13.1252 13.3649 13.209 13.1972 13.3768C13.0295 13.5446 12.9456 13.7525 12.9456 14.0005C12.9456 14.2485 13.0295 14.4563 13.1972 14.6238C13.3649 14.7913 13.5727 14.8751 13.8206 14.8751ZM13.8206 10.3431H18.7117C18.9596 10.3431 19.1674 10.2592 19.3351 10.0914C19.5028 9.92363 19.5867 9.71573 19.5867 9.46769C19.5867 9.21968 19.5028 9.01192 19.3351 8.8444C19.1674 8.67687 18.9596 8.5931 18.7117 8.5931H13.8206C13.5727 8.5931 13.3649 8.67699 13.1972 8.84478C13.0295 9.01257 12.9456 9.22047 12.9456 9.46848C12.9456 9.71652 13.0295 9.92429 13.1972 10.0918C13.3649 10.2593 13.5727 10.3431 13.8206 10.3431ZM6.19248 23.9168C5.60316 23.9168 5.10433 23.7126 4.696 23.3043C4.28766 22.8959 4.0835 22.3971 4.0835 21.8078V6.19248C4.0835 5.60316 4.28766 5.10433 4.696 4.696C5.10433 4.28766 5.60316 4.0835 6.19248 4.0835H21.8078C22.3971 4.0835 22.8959 4.28766 23.3043 4.696C23.7126 5.10433 23.9168 5.60316 23.9168 6.19248V21.8078C23.9168 22.3971 23.7126 22.8959 23.3043 23.3043C22.8959 23.7126 22.3971 23.9168 21.8078 23.9168H6.19248ZM6.19248 22.1668H21.8078C21.8975 22.1668 21.9798 22.1294 22.0546 22.0546C22.1294 21.9798 22.1668 21.8975 22.1668 21.8078V6.19248C22.1668 6.10273 22.1294 6.02045 22.0546 5.94564C21.9798 5.87086 21.8975 5.83347 21.8078 5.83347H6.19248C6.10272 5.83347 6.02044 5.87086 5.94564 5.94564C5.87086 6.02045 5.83347 6.10273 5.83347 6.19248V21.8078C5.83347 21.8975 5.87086 21.9798 5.94564 22.0546C6.02044 22.1294 6.10272 22.1668 6.19248 22.1668Z" fill="#666A6B"/>
</svg>