<svg width="24" height="24" viewBox="0 0 24 24" fill="none" xmlns="http://www.w3.org/2000/svg">
    <path d="M5.37305 15.5867L7.68078 17.8944C7.81923 18.0329 7.89006 18.2043 7.89328 18.4088C7.89648 18.6133 7.82564 18.7931 7.68078 18.9482C7.52564 19.1033 7.34744 19.1809 7.14618 19.1809C6.94489 19.1809 6.7667 19.1033 6.61158 18.9482L3.13273 15.4694C3.03914 15.3758 2.97312 15.2771 2.93465 15.1732C2.89619 15.0694 2.87695 14.9572 2.87695 14.8367C2.87695 14.7162 2.89619 14.604 2.93465 14.5002C2.97312 14.3963 3.03914 14.2976 3.13273 14.204L6.62695 10.7098C6.77567 10.5611 6.9497 10.4877 7.14905 10.4896C7.3484 10.4915 7.52564 10.57 7.68078 10.7252C7.82564 10.8803 7.90064 11.0559 7.90578 11.2521C7.91089 11.4482 7.83589 11.6239 7.68078 11.779L5.37305 14.0867H11.9039C12.1167 14.0867 12.2949 14.1585 12.4385 14.3021C12.582 14.4457 12.6538 14.6239 12.6538 14.8367C12.6538 15.0495 12.582 15.2277 12.4385 15.3713C12.2949 15.5149 12.1167 15.5867 11.9039 15.5867H5.37305ZM18.627 9.90402H12.0962C11.8834 9.90402 11.7052 9.83222 11.5616 9.68862C11.418 9.54503 11.3462 9.36683 11.3462 9.15402C11.3462 8.9412 11.418 8.763 11.5616 8.61942C11.7052 8.47583 11.8834 8.40404 12.0962 8.40404H18.627L16.3192 6.09632C16.1808 5.95787 16.1099 5.7864 16.1067 5.58192C16.1035 5.37743 16.1744 5.19762 16.3192 5.04249C16.4744 4.88737 16.6526 4.80981 16.8538 4.80981C17.0551 4.80981 17.2333 4.88737 17.3884 5.04249L20.8673 8.52134C20.9609 8.61492 21.0269 8.71364 21.0654 8.81749C21.1038 8.92134 21.1231 9.03351 21.1231 9.15402C21.1231 9.27453 21.1038 9.38672 21.0654 9.49057C21.0269 9.5944 20.9609 9.69311 20.8673 9.78671L17.3731 13.2809C17.2243 13.4297 17.0503 13.503 16.851 13.5011C16.6516 13.4992 16.4744 13.4207 16.3192 13.2655C16.1744 13.1104 16.0994 12.9348 16.0942 12.7386C16.0891 12.5425 16.1641 12.3669 16.3192 12.2117L18.627 9.90402Z" fill="#0E1E6D"/>
</svg>