<svg width="24" height="24" viewBox="0 0 24 24" fill="none" xmlns="http://www.w3.org/2000/svg">
    <path d="M16.6116 12.7501H5.25C5.03718 12.7501 4.85898 12.6783 4.7154 12.5347C4.5718 12.3911 4.5 12.2129 4.5 12.0001C4.5 11.7873 4.5718 11.6091 4.7154 11.4655C4.85898 11.3219 5.03718 11.2501 5.25 11.2501H16.6116L13.3192 7.95778C13.1705 7.80906 13.0971 7.63503 13.099 7.43568C13.1009 7.23633 13.1743 7.05908 13.3192 6.90395C13.4743 6.74883 13.6525 6.66871 13.8538 6.66358C14.0551 6.65844 14.2333 6.73344 14.3884 6.88858L18.8672 11.3674C18.9608 11.461 19.0269 11.5597 19.0653 11.6636C19.1038 11.7674 19.123 11.8796 19.123 12.0001C19.123 12.1206 19.1038 12.2328 19.0653 12.3366C19.0269 12.4405 18.9608 12.5392 18.8672 12.6328L14.3884 17.1116C14.2397 17.2603 14.0631 17.3337 13.8586 17.3318C13.6541 17.3299 13.4743 17.2514 13.3192 17.0963C13.1743 16.9411 13.0993 16.7655 13.0942 16.5693C13.0891 16.3732 13.1641 16.1975 13.3192 16.0424L16.6116 12.7501Z" fill="#1F1F20"/>
</svg>