<svg width="28" height="28" viewBox="0 0 28 28" fill="none" xmlns="http://www.w3.org/2000/svg">
    <path d="M10.4998 16.6248C10.0915 16.6248 9.74634 16.4838 9.46439 16.2019C9.18245 15.9199 9.04147 15.5748 9.04147 15.1665C9.04147 14.7581 9.18245 14.413 9.46439 14.1311C9.74634 13.8491 10.0915 13.7081 10.4998 13.7081C10.9081 13.7081 11.2533 13.8491 11.5352 14.1311C11.8172 14.413 11.9581 14.7581 11.9581 15.1665C11.9581 15.5748 11.8172 15.9199 11.5352 16.2019C11.2533 16.4838 10.9081 16.6248 10.4998 16.6248ZM17.4998 16.6248C17.0915 16.6248 16.7463 16.4838 16.4644 16.2019C16.1824 15.9199 16.0415 15.5748 16.0415 15.1665C16.0415 14.7581 16.1824 14.413 16.4644 14.1311C16.7463 13.8491 17.0915 13.7081 17.4998 13.7081C17.9081 13.7081 18.2533 13.8491 18.5352 14.1311C18.8172 14.413 18.9581 14.7581 18.9581 15.1665C18.9581 15.5748 18.8172 15.9199 18.5352 16.2019C18.2533 16.4838 17.9081 16.6248 17.4998 16.6248ZM13.9998 23.3331C16.6054 23.3331 18.8123 22.429 20.6206 20.6206C22.429 18.8123 23.3331 16.6054 23.3331 13.9998C23.3331 13.5331 23.304 13.0811 23.2456 12.6436C23.1873 12.2061 23.0804 11.7831 22.9248 11.3748C22.5165 11.472 22.1081 11.5449 21.6998 11.5936C21.2915 11.6422 20.8637 11.6665 20.4165 11.6665C18.647 11.6665 16.9748 11.2873 15.3998 10.529C13.8248 9.77064 12.4831 8.71092 11.3748 7.34981C10.7526 8.86648 9.863 10.1838 8.70606 11.3019C7.54911 12.4199 6.20259 13.2609 4.66647 13.8248V13.9998C4.66647 16.6054 5.57064 18.8123 7.37897 20.6206C9.18731 22.429 11.3943 23.3331 13.9998 23.3331ZM14.0018 25.0831C12.4688 25.0831 11.028 24.7922 9.67915 24.2104C8.3303 23.6287 7.15701 22.8391 6.15925 21.8418C5.16148 20.8445 4.37158 19.6717 3.78955 18.3235C3.20752 16.9753 2.9165 15.5347 2.9165 14.0018C2.9165 12.4688 3.20739 11.028 3.78917 9.67915C4.37095 8.3303 5.16049 7.15701 6.1578 6.15926C7.15512 5.16148 8.3279 4.37158 9.67614 3.78955C11.0244 3.20752 12.4649 2.9165 13.9979 2.9165C15.5308 2.9165 16.9717 3.20739 18.3205 3.78917C19.6693 4.37095 20.8426 5.16049 21.8404 6.1578C22.8381 7.15512 23.628 8.3279 24.2101 9.67614C24.7921 11.0244 25.0831 12.4649 25.0831 13.9979C25.0831 15.5308 24.7922 16.9716 24.2104 18.3205C23.6287 19.6693 22.8391 20.8426 21.8418 21.8404C20.8445 22.8381 19.6717 23.628 18.3235 24.2101C16.9753 24.7921 15.5347 25.0831 14.0018 25.0831ZM11.8751 4.92448C12.7591 6.55486 13.9852 7.79447 15.5535 8.64329C17.1218 9.4921 18.7428 9.9165 20.4165 9.9165C20.7336 9.9165 21.0428 9.90006 21.3442 9.86716C21.6456 9.83426 21.9511 9.78714 22.2607 9.72581C21.4815 8.17772 20.3526 6.94747 18.874 6.03506C17.3955 5.12267 15.7708 4.66648 13.9998 4.66648C13.6079 4.66648 13.2426 4.68853 12.9038 4.73265C12.565 4.77679 12.2221 4.84074 11.8751 4.92448ZM4.99402 11.772C6.09039 11.223 7.13144 10.421 8.11715 9.36572C9.10285 8.31047 9.73929 7.04544 10.0265 5.57061C8.75058 6.14947 7.67214 6.98148 6.79115 8.06664C5.91016 9.15179 5.31112 10.3869 4.99402 11.772Z" fill="#666A6B"/>
</svg>