<svg width="20" height="20" viewBox="0 0 20 20" fill="none" xmlns="http://www.w3.org/2000/svg">
    <path d="M4.875 13.2501L6.54167 14.9167C6.69444 15.0695 6.77083 15.2478 6.77083 15.4515C6.77083 15.6552 6.69444 15.8311 6.54167 15.9792C6.39351 16.132 6.21759 16.2084 6.0139 16.2084C5.81019 16.2084 5.63194 16.132 5.47917 15.9792L2.52083 13.0209C2.45139 12.9459 2.39931 12.8647 2.36458 12.7772C2.32986 12.6897 2.3125 12.5959 2.3125 12.4959C2.3125 12.3959 2.32986 12.3022 2.36458 12.2147C2.39931 12.1272 2.45139 12.0487 2.52083 11.9792L5.47917 9.02092C5.63194 8.86814 5.80903 8.79175 6.01042 8.79175C6.21181 8.79175 6.39221 8.86814 6.55163 9.02092C6.69776 9.17369 6.77083 9.35078 6.77083 9.55217C6.77083 9.75355 6.69444 9.93064 6.54167 10.0834L4.875 11.7501H10.25C10.4625 11.7501 10.6406 11.8215 10.7844 11.9644C10.9281 12.1074 11 12.2844 11 12.4957C11 12.707 10.9281 12.8855 10.7844 13.0313C10.6406 13.1772 10.4625 13.2501 10.25 13.2501H4.875ZM15.125 8.25008H9.75C9.5375 8.25008 9.35938 8.17863 9.21563 8.03573C9.07188 7.89281 9 7.71573 9 7.50448C9 7.29321 9.07188 7.11466 9.21563 6.96883C9.35938 6.823 9.5375 6.75008 9.75 6.75008H15.125L13.4583 5.08341C13.3056 4.93064 13.2292 4.75239 13.2292 4.54869C13.2292 4.34499 13.3056 4.16907 13.4583 4.02091C13.6065 3.86814 13.7824 3.79175 13.9861 3.79175C14.1898 3.79175 14.3681 3.86814 14.5208 4.02091L17.4792 6.97925C17.5486 7.05425 17.6007 7.1355 17.6354 7.223C17.6701 7.3105 17.6875 7.40425 17.6875 7.50425C17.6875 7.60425 17.6701 7.698 17.6354 7.7855C17.6007 7.873 17.5486 7.95147 17.4792 8.02092L14.5208 10.9792C14.3731 11.132 14.2008 11.2049 14.0038 11.198C13.8068 11.1911 13.6286 11.1112 13.4692 10.9584C13.3231 10.8056 13.25 10.6286 13.25 10.4272C13.25 10.2258 13.3264 10.0487 13.4792 9.89592L15.125 8.25008Z" fill="#3D4DA1"/>
</svg>