<svg width="14" height="16" viewBox="0 0 14 16" fill="none" xmlns="http://www.w3.org/2000/svg">
    <path d="M3.5074 1.97046H5.47783V0H3.5074V1.97046ZM7.44829 1.97046V0H9.41875V1.97046H7.44829ZM3.5074 9.85228V7.88182H5.47783V9.85228H3.5074ZM11.3892 5.91135V3.94089H13.3597V5.91135H11.3892ZM11.3892 9.85228V7.88182H13.3597V9.85228H11.3892ZM7.44829 9.85228V7.88182H9.41875V9.85228H7.44829ZM11.3892 1.97046V0H13.3597V1.97046H11.3892ZM5.47783 3.94089V1.97046H7.44829V3.94089H5.47783ZM0.768122 16.0001C0.5503 16.0001 0.36782 15.9265 0.220682 15.7792C0.0735608 15.6319 0 15.4494 0 15.2317V0.768454C0 0.550718 0.0736801 0.368204 0.22104 0.220912C0.368401 0.0736365 0.550992 0 0.768813 0C0.986635 0 1.16911 0.0736365 1.31625 0.220912C1.46337 0.368204 1.53693 0.550718 1.53693 0.768454V1.97046H3.5074V3.94089H1.53693V5.91135H3.5074V7.88182H1.53693V15.2317C1.53693 15.4494 1.46325 15.6319 1.31589 15.7792C1.16853 15.9265 0.985943 16.0001 0.768122 16.0001ZM9.41875 7.88182V5.91135H11.3892V7.88182H9.41875ZM5.47783 7.88182V5.91135H7.44829V7.88182H5.47783ZM3.5074 5.91135V3.94089H5.47783V5.91135H3.5074ZM7.44829 5.91135V3.94089H9.41875V5.91135H7.44829ZM9.41875 3.94089V1.97046H11.3892V3.94089H9.41875Z" fill="#DA2323"/>
</svg>