<svg width="28" height="28" viewBox="0 0 28 28" fill="none" xmlns="http://www.w3.org/2000/svg">
    <path d="M6.99997 22.1665H10.9038V16.2883C10.9038 15.9896 11.0049 15.7391 11.207 15.537C11.4091 15.3349 11.6596 15.2339 11.9583 15.2339H16.0416C16.3404 15.2339 16.5908 15.3349 16.7929 15.537C16.995 15.7391 17.0961 15.9896 17.0961 16.2883V22.1665H21V11.846C21 11.7862 20.9869 11.732 20.9607 11.6834C20.9345 11.6348 20.899 11.5918 20.8541 11.5544L14.2131 6.56237C14.1533 6.51003 14.0822 6.48386 14 6.48386C13.9177 6.48386 13.8467 6.51003 13.7868 6.56237L7.1458 11.5544C7.10095 11.5918 7.06542 11.6348 7.03923 11.6834C7.01306 11.732 6.99997 11.7862 6.99997 11.846V22.1665ZM5.25 22.1665V11.846C5.25 11.5121 5.3247 11.1958 5.47409 10.897C5.62348 10.5982 5.82998 10.3522 6.09359 10.1589L12.7346 5.15569C13.1031 4.87449 13.5243 4.73389 13.9982 4.73389C14.472 4.73389 14.8944 4.87449 15.2653 5.15569L21.9064 10.1589C22.17 10.3522 22.3765 10.5982 22.5259 10.897C22.6752 11.1958 22.7499 11.5121 22.7499 11.846V22.1665C22.7499 22.6437 22.5776 23.0546 22.2328 23.3994C21.888 23.7441 21.4771 23.9165 21 23.9165H16.4006C16.1019 23.9165 15.8514 23.8155 15.6493 23.6133C15.4472 23.4112 15.3461 23.1608 15.3461 22.862V16.9838H12.6538V22.862C12.6538 23.1608 12.5528 23.4112 12.3507 23.6133C12.1485 23.8155 11.8981 23.9165 11.5993 23.9165H6.99997C6.52284 23.9165 6.1119 23.7441 5.76715 23.3994C5.42238 23.0546 5.25 22.6437 5.25 22.1665Z" fill="#666A6B"/>
</svg>